<svg width="113" height="113" viewBox="0 0 113 113" fill="none" xmlns="http://www.w3.org/2000/svg">
<path d="M42.3405 7.95689C48.5099 -2.6522 63.8339 -2.65219 70.0033 7.95691L80.5177 26.0379C81.9125 28.4366 83.9072 30.4312 86.3059 31.8261L104.387 42.3405C114.996 48.5099 114.996 63.8339 104.387 70.0033L86.3059 80.5177C83.9072 81.9125 81.9125 83.9072 80.5177 86.3059L70.0033 104.387C63.8339 114.996 48.5099 114.996 42.3405 104.387L31.8261 86.3059C30.4312 83.9072 28.4366 81.9125 26.0379 80.5177L7.95689 70.0033C-2.6522 63.8339 -2.65219 48.5099 7.95691 42.3405L26.0379 31.8261C28.4366 30.4312 30.4312 28.4366 31.8261 26.0379L42.3405 7.95689Z" fill="#F5D751"/>
</svg>
