<svg width="15" height="16" viewBox="0 0 15 16" fill="none" xmlns="http://www.w3.org/2000/svg">
<path d="M5.3768 12.2346C5.3768 12.2346 5.61834 9.76263 4.83789 7.61816C4.37889 6.35694 2.75601 3.32137 2.75601 3.32137" stroke="#D9D9D9" stroke-width="3" stroke-linecap="round"/>
<path d="M6.83789 12.6182C6.83789 12.6182 7.64876 7.48519 7.53298 5.12648C7.46489 3.73925 7.06124 1.61833 7.06124 1.61833" stroke="#D9D9D9" stroke-width="3" stroke-linecap="round"/>
<path d="M8.3366 12.6173C8.3366 12.6173 9.9765 7.20429 10.3386 6.1179C10.8386 4.6179 10.8379 2.61816 10.8379 2.61816" stroke="#D9D9D9" stroke-width="3" stroke-linecap="round"/>
<path d="M9.68897 13.9674L11.8381 9.11797L13.3362 6.61796" stroke="#D9D9D9" stroke-width="3" stroke-linecap="round"/>
<path d="M4.83789 13.1182C5.83762 14.1178 2.83842 13.1176 2.33712 12.6177C2.01334 12.2948 1.33773 11.6175 1.33773 11.6175" stroke="#D9D9D9" stroke-width="3" stroke-linecap="round"/>
<path d="M10.8368 11.1183C10.8368 11.1183 10.1444 13.8496 9.33788 14.118C8.17878 14.5038 4.33789 13.6182 4.33789 13.6182" stroke="#D9D9D9" stroke-width="3" stroke-linecap="round"/>
</svg>
