<svg width="142" height="142" viewBox="0 0 142 142" fill="none" xmlns="http://www.w3.org/2000/svg">
<path d="M60.5987 3.82249C66.5788 -1.27374 75.3743 -1.27374 81.3544 3.82248L90.3016 11.4472C92.8642 13.631 96.0504 14.9508 99.4067 15.2187L111.125 16.1538C118.957 16.7788 125.176 22.9981 125.801 30.8303L126.736 42.5484C127.004 45.9046 128.324 49.0909 130.508 51.6535L138.133 60.6006C143.229 66.5808 143.229 75.3763 138.133 81.3564L130.508 90.3035C128.324 92.8662 127.004 96.0524 126.736 99.4087L125.801 111.127C125.176 118.959 118.957 125.178 111.125 125.803L99.4067 126.738C96.0504 127.006 92.8642 128.326 90.3016 130.51L81.3544 138.135C75.3743 143.231 66.5788 143.231 60.5987 138.135L51.6515 130.51C49.0889 128.326 45.9027 127.006 42.5464 126.738L30.8283 125.803C22.9962 125.178 16.7768 118.959 16.1518 111.127L15.2167 99.4087C14.9489 96.0524 13.6291 92.8662 11.4452 90.3035L3.82053 81.3564C-1.27569 75.3763 -1.27569 66.5808 3.82053 60.6006L11.4452 51.6535C13.6291 49.0909 14.9489 45.9046 15.2167 42.5484L16.1518 30.8303C16.7768 22.9981 22.9962 16.7788 30.8283 16.1538L42.5464 15.2187C45.9027 14.9508 49.0889 13.631 51.6515 11.4472L60.5987 3.82249Z" fill="#574AE2"/>
</svg>
