<svg width="14" height="14" viewBox="-0.75 -0.75 15.5 15.5" fill="none" xmlns="http://www.w3.org/2000/svg">
<path d="M5.27669 0.99228C6.07069 -0.330761 7.92931 -0.330759 8.72331 0.992282L9.60249 2.45725C9.88185 2.92275 10.3256 3.25681 10.8393 3.38822L12.4558 3.80179C13.9157 4.17529 14.49 6.00662 13.5209 7.19781L12.4477 8.51678C12.1067 8.93589 11.9372 9.4764 11.9753 10.0231L12.0952 11.7437C12.2034 13.2976 10.6998 14.4294 9.30681 13.8425L7.76439 13.1927C7.27428 12.9863 6.72572 12.9863 6.23561 13.1927L4.69319 13.8425C3.30021 14.4294 1.79656 13.2976 1.90482 11.7437L2.0247 10.0231C2.06279 9.4764 1.89327 8.93589 1.55228 8.51678L0.479136 7.19781C-0.490037 6.00662 0.0843092 4.17529 1.5442 3.80179L3.1607 3.38822C3.67435 3.25681 4.11815 2.92275 4.39751 2.45725L5.27669 0.99228Z" fill="#080910"/>
</svg>
