<svg width="123" height="119" viewBox="0 0 123 119" fill="none" xmlns="http://www.w3.org/2000/svg">
<path d="M46.1428 7.54939C53.7448 -2.51634 68.8646 -2.51635 76.4665 7.54938L85.9604 20.1202C88.2338 23.1304 91.3518 25.3958 94.9172 26.6277L109.807 31.7723C121.729 35.8917 126.401 50.2715 119.177 60.6119L110.155 73.5256C107.995 76.618 106.804 80.2834 106.734 84.055L106.442 99.8054C106.209 112.417 93.9766 121.304 81.91 117.629L66.8403 113.04C63.2317 111.941 59.3777 111.941 55.7691 113.04L40.6994 117.629C28.6328 121.304 16.4007 112.417 16.167 99.8054L15.8753 84.0551C15.8054 80.2835 14.6144 76.618 12.4541 73.5256L3.4323 60.6119C-3.79164 50.2715 0.880612 35.8917 12.8028 31.7723L27.6921 26.6277C31.2575 25.3958 34.3756 23.1304 36.649 20.1202L46.1428 7.54939Z" fill="white"/>
</svg>
