<svg width="44" height="44" viewBox="0 0 44 44" fill="none" xmlns="http://www.w3.org/2000/svg">
<path d="M16.5839 3.11859C19.0793 -1.03953 24.9207 -1.03953 27.4161 3.1186L30.1792 7.72279C31.0572 9.1858 32.452 10.2357 34.0664 10.6487L39.1468 11.9485C43.735 13.1223 45.5401 18.878 42.4941 22.6217L39.1214 26.767C38.0497 28.0842 37.5169 29.783 37.6367 31.5012L38.0134 36.9087C38.3537 41.7923 33.6279 45.3495 29.25 43.5051L24.4024 41.4629C22.862 40.814 21.138 40.814 19.5976 41.4629L14.75 43.5051C10.3721 45.3495 5.64632 41.7923 5.98658 36.9087L6.36334 31.5012C6.48305 29.783 5.95029 28.0842 4.87859 26.767L1.50586 22.6217C-1.54012 18.878 0.264972 13.1223 4.8532 11.9485L9.93364 10.6487C11.548 10.2357 12.9428 9.1858 13.8208 7.72279L16.5839 3.11859Z" fill="#EC0B43"/>
</svg>
